HIERARCHY
ROOT Hips
{
	OFFSET 0.00000 0.00000 0.00000
	CHANNELS 6 Xposition Yposition Zposition Zrotation Yrotation Xrotation 
	JOINT LHipJoint
	{
		OFFSET 0 0 0
		CHANNELS 3 Zrotation Yrotation Xrotation
		JOINT LeftUpLeg
		{
			OFFSET 1.17584 -1.63585 1.00361
			CHANNELS 3 Zrotation Yrotation Xrotation
			JOINT LeftLeg
			{
				OFFSET 2.23889 -6.15131 0.00000
				CHANNELS 3 Zrotation Yrotation Xrotation
				JOINT LeftFoot
				{
					OFFSET 2.65161 -7.28525 0.00000
					CHANNELS 3 Zrotation Yrotation Xrotation
					JOINT LeftToeBase
					{
						OFFSET 0.24898 -0.68407 1.57235
						CHANNELS 3 Zrotation Yrotation Xrotation
						End Site
						{
							OFFSET 0.00000 -0.00000 0.85838
						}
					}
				}
			}
		}
	}
	JOINT RHipJoint
	{
		OFFSET 0 0 0
		CHANNELS 3 Zrotation Yrotation Xrotation
		JOINT RightUpLeg
		{
			OFFSET -1.15592 -1.63585 1.00361
			CHANNELS 3 Zrotation Yrotation Xrotation
			JOINT RightLeg
			{
				OFFSET -2.34071 -6.43104 0.00000
				CHANNELS 3 Zrotation Yrotation Xrotation
				JOINT RightFoot
				{
					OFFSET -2.59113 -7.11908 0.00000
					CHANNELS 3 Zrotation Yrotation Xrotation
					JOINT RightToeBase
					{
						OFFSET -0.17867 -0.49089 1.70981
						CHANNELS 3 Zrotation Yrotation Xrotation
						End Site
						{
							OFFSET -0.00000 -0.00000 0.89861
						}
					}
				}
			}
		}
	}
	JOINT LowerBack
	{
		OFFSET 0 0 0
		CHANNELS 3 Zrotation Yrotation Xrotation
		JOINT Spine
		{
			OFFSET -0.02255 1.90764 -0.16605
			CHANNELS 3 Zrotation Yrotation Xrotation
			JOINT Spine1
			{
				OFFSET -0.00365 1.92150 -0.04898
				CHANNELS 3 Zrotation Yrotation Xrotation
				JOINT Neck
				{
					OFFSET 0 0 0
					CHANNELS 3 Zrotation Yrotation Xrotation
					JOINT Neck1
					{
						OFFSET 0.00372 1.59170 0.08694
						CHANNELS 3 Zrotation Yrotation Xrotation
						JOINT Head
						{
							OFFSET 0.12558 1.58643 -0.08078
							CHANNELS 3 Zrotation Yrotation Xrotation
							End Site
							{
								OFFSET 0.04211 1.60835 -0.03803
							}
						}
					}
				}
				JOINT LeftShoulder
				{
					OFFSET 0 0 0
					CHANNELS 3 Zrotation Yrotation Xrotation
					JOINT LeftArm
					{
						OFFSET 3.69324 0.96316 0.19077
						CHANNELS 3 Zrotation Yrotation Xrotation
						JOINT LeftForeArm
						{
							OFFSET 4.87796 -0.00000 -0.00000
							CHANNELS 3 Zrotation Yrotation Xrotation
							JOINT LeftHand
							{
								OFFSET 3.23169 -0.00000 0.00000
								CHANNELS 3 Zrotation Yrotation Xrotation
								JOINT LeftFingerBase
								{
									OFFSET 0 0 0
									CHANNELS 3 Zrotation Yrotation Xrotation
									JOINT LeftHandIndex1
									{
										OFFSET 0.73132 -0.00000 0.00000
										CHANNELS 3 Zrotation Yrotation Xrotation
										End Site
										{
											OFFSET 0.58961 -0.00000 0.00000
										}
									}
								}
								JOINT LThumb
								{
									OFFSET 0 0 0
									CHANNELS 3 Zrotation Yrotation Xrotation
									End Site
									{
										OFFSET 0.59861 -0.00000 0.59861
									}
								}
							}
						}
					}
				}
				JOINT RightShoulder
				{
					OFFSET 0 0 0
					CHANNELS 3 Zrotation Yrotation Xrotation
					JOINT RightArm
					{
						OFFSET -3.66103 0.75145 0.08281
						CHANNELS 3 Zrotation Yrotation Xrotation
						JOINT RightForeArm
						{
							OFFSET -4.91430 -0.00000 0.00000
							CHANNELS 3 Zrotation Yrotation Xrotation
							JOINT RightHand
							{
								OFFSET -3.29093 -0.00000 0.00000
								CHANNELS 3 Zrotation Yrotation Xrotation
								JOINT RightFingerBase
								{
									OFFSET 0 0 0
									CHANNELS 3 Zrotation Yrotation Xrotation
									JOINT RightHandIndex1
									{
										OFFSET -0.54512 -0.00000 0.00000
										CHANNELS 3 Zrotation Yrotation Xrotation
										End Site
										{
											OFFSET -0.43949 -0.00000 0.00000
										}
									}
								}
								JOINT RThumb
								{
									OFFSET 0 0 0
									CHANNELS 3 Zrotation Yrotation Xrotation
									End Site
									{
										OFFSET -0.44620 -0.00000 0.44620
									}
								}
							}
						}
					}
				}
			}
		}
	}
}
MOTION
Frames: 10
Frame Time: .0083333
-2.9257 13.6268 -18.1961 -537.3150 -491.5500 -168.8310 0.0000 0.0000 0.0000 -7.6241 8.1193 -75.2514 24.7124 19.4590 103.8984 0.8086 -11.6965 -16.8759 1.4290 -7.5587 -21.3816 0.0000 0.0000 0.0000 1.9869 -0.1323 -68.0150 -24.3389 -19.5425 102.7796 2.0142 24.1610 10.0419 -0.0145 0.7770 -2.1353 -0.3844 -2.3949 20.6706 1.6037 -3.3174 6.9340 2.7115 -1.7397 -3.8947 -6.0939 -11.3670 -6.0113 18.7326 -14.4404 -9.4689 6.1389 -7.4980 0.1199 -0.0000 0.0000 0.0000 -24.2525 -76.6512 24.7479 100.0292 -59.6165 -68.6743 -0.0000 -0.0000 5.1697 65.1699 -31.2747 -48.2899 -7.1250 0.0000 -0.0000 17.8122 -23.2488 -24.2575 -0.0000 0.0000 0.0000 44.7733 28.9610 13.2499 -125.0146 54.8185 -89.7959 0.0000 -0.0000 -4.0967 -43.2502 -17.2041 15.5487 7.1250 -0.0000 -0.0000 -16.0331 -52.2986 2.9423
-2.9166 13.7800 -18.2034 -537.7950 -492.8210 -168.9850 0.0000 0.0000 0.0000 -6.8376 8.8592 -71.6588 24.7662 19.4464 104.0602 0.8079 -10.9855 -16.6896 1.5941 -7.9639 -22.6044 0.0000 0.0000 0.0000 1.2425 1.5671 -67.3324 -23.9649 -19.6188 101.6638 2.1452 24.8636 9.3697 -0.1561 2.5461 -7.0174 -0.5049 -2.6445 20.1072 1.7131 -3.6563 6.9621 2.9389 -1.9111 -3.5442 -6.2248 -11.5014 -5.7407 18.8775 -14.6799 -8.8963 6.1749 -7.5925 0.2951 0.0000 -0.0000 0.0000 -35.8494 -77.8638 41.1127 96.6674 -59.8314 -65.7708 -0.0000 -0.0000 5.8500 62.2207 -32.0760 -45.2309 -7.1250 0.0000 -0.0000 15.9826 -21.7081 -21.3919 0.0000 -0.0000 0.0000 49.2454 25.0442 16.8034 -125.6886 54.5930 -90.3460 0.0000 -0.0000 -3.1016 -43.3100 -15.2063 13.8884 7.1250 -0.0000 -0.0000 -15.7670 -49.7960 1.9063
-2.9057 13.9301 -18.2075 -537.9420 -493.8370 -169.2360 0.0000 0.0000 0.0000 -6.5143 9.4973 -68.0224 24.7177 19.4578 103.9143 0.8674 -9.3827 -16.8955 2.3560 -9.5712 -27.5991 0.0000 0.0000 0.0000 0.0503 3.7815 -66.9382 -23.5802 -19.6899 100.5201 2.1775 25.0596 8.5154 -0.2957 3.4968 -9.6652 -0.9846 -2.9100 19.5584 1.8235 -4.0778 6.8812 3.3865 -2.1241 -3.2841 -6.6360 -11.5392 -5.6143 18.9646 -14.7921 -8.1977 6.2319 -7.6021 0.5319 0.0000 0.0000 0.0000 -48.4387 -78.3023 58.0390 93.0582 -59.9646 -62.6482 -0.0000 -0.0000 6.8405 59.4939 -33.2011 -42.9037 -7.1250 0.0000 -0.0000 14.1727 -20.9149 -18.7393 0.0000 0.0000 0.0000 53.4631 21.0366 20.2468 -125.9427 54.5063 -90.5531 0.0000 -0.0000 -2.1920 -43.3144 -13.4738 12.3899 7.1250 -0.0000 -0.0000 -15.4777 -47.5893 1.0119
-2.8905 14.0619 -18.2133 -537.8390 -494.6590 -169.4200 0.0000 0.0000 0.0000 -6.1915 9.8723 -64.2630 24.5396 19.4986 103.3804 0.8032 -9.0443 -16.2544 2.0873 -9.0457 -25.9383 0.0000 0.0000 0.0000 -1.4008 6.2962 -67.0050 -23.1819 -19.7555 99.3397 1.9800 24.0518 7.0904 -0.5094 4.5751 -12.7004 -1.7304 -3.1339 18.8815 1.9397 -4.4860 6.7427 3.9726 -2.3346 -2.9883 -7.1627 -11.5521 -6.0352 18.9217 -14.9028 -7.0785 6.2202 -7.5621 0.9764 0.0000 -0.0000 0.0000 -61.4101 -78.2437 74.8451 88.9401 -59.9958 -59.0821 -0.0000 -0.0000 8.3634 57.0142 -35.1944 -41.6046 -7.1250 0.0000 -0.0000 12.1730 -21.3898 -16.0492 0.0000 -0.0000 0.0000 57.4077 16.7139 23.1764 -125.8804 54.5277 -90.5023 0.0000 -0.0000 -1.2275 -43.9100 -12.2276 11.5239 7.1250 -0.0000 -0.0000 -15.8557 -46.0948 0.4394
-2.8937 14.1927 -18.2210 -537.6440 -495.2960 -169.6890 0.0000 0.0000 0.0000 -6.0020 10.3219 -60.2768 24.2149 19.5686 102.4092 0.6928 -8.9238 -15.1774 1.7062 -8.2252 -23.4001 0.0000 0.0000 0.0000 -2.7965 9.0392 -67.0370 -22.7598 -19.8164 98.0929 1.5680 21.7615 4.6898 -0.9067 6.0681 -16.9820 -2.9778 -3.2105 18.3362 2.2500 -4.7744 6.5204 5.0307 -2.4929 -2.7842 -7.9485 -11.5090 -6.3923 18.8186 -14.9085 -6.0078 6.2476 -7.4717 1.3977 0.0000 0.0000 0.0000 -74.8559 -77.6095 91.4412 84.1586 -59.8707 -54.9434 -0.0000 -0.0000 10.3755 54.4392 -37.4458 -40.3808 -7.1250 0.0000 -0.0000 10.0321 -22.1488 -13.2250 0.0000 0.0000 0.0000 60.5200 12.1338 25.3532 -125.4662 54.6681 -90.1647 0.0000 -0.0000 -0.5807 -44.1892 -11.6929 11.1451 7.1250 -0.0000 -0.0000 -16.0305 -45.4489 0.1823
-2.8987 14.3091 -18.2179 -537.5510 -495.7330 -169.9100 0.0000 0.0000 0.0000 -6.0678 10.8724 -56.0648 23.6785 19.6724 100.8120 0.5495 -8.7002 -13.6600 1.4211 -7.5387 -21.3216 0.0000 0.0000 0.0000 -4.1351 12.0069 -67.1324 -22.2542 -19.8777 96.6038 1.0387 18.3284 1.7167 -1.2257 7.0218 -19.7800 -3.4581 -3.4262 17.8858 1.9749 -5.1263 6.1708 5.0547 -2.6522 -2.8686 -7.9879 -11.3830 -6.0673 18.7040 -14.8343 -5.2487 6.2208 -7.4079 1.5479 0.0000 -0.0000 0.0000 -85.2382 -76.3329 105.5476 79.3424 -59.5664 -50.7837 -0.0000 -0.0000 12.6605 52.8587 -39.2030 -39.8448 -7.1250 0.0000 -0.0000 8.5702 -23.0263 -11.3321 0.0000 -0.0000 0.0000 64.2523 7.3547 27.2161 -124.3208 55.0441 -89.2281 0.0000 0.0000 0.1884 -44.3912 -11.6922 11.2214 7.1250 -0.0000 -0.0000 -16.2295 -45.4838 0.1991
-2.9000 14.2708 -18.2202 -537.6590 -495.9890 -169.8770 0.0000 0.0000 0.0000 -5.9106 11.7472 -52.6217 23.2693 19.7418 99.5985 0.4657 -8.7254 -12.7422 1.8899 -8.6329 -24.6534 0.0000 0.0000 0.0000 -5.7882 15.0340 -68.5491 -21.9314 -19.9103 95.6552 0.5534 14.2259 -0.8254 -1.2094 6.9766 -19.6460 -4.0151 -3.6140 17.2950 1.9126 -5.4426 5.8700 5.3229 -2.8043 -2.7969 -7.9758 -11.2422 -5.6450 18.4467 -14.6898 -4.9314 6.1709 -7.3371 1.5271 -0.0000 0.0000 0.0000 -93.8625 -74.8991 117.2740 74.1798 -59.0329 -46.3438 -0.0000 -0.0000 15.2271 52.7518 -41.3471 -40.9847 -7.1250 0.0000 -0.0000 7.6249 -25.1107 -10.2027 -0.0000 0.0000 0.0000 67.4881 2.8332 28.6542 -122.1756 55.7018 -87.4628 0.0000 0.0000 1.1609 -45.0744 -11.5443 11.3455 7.1250 -0.0000 -0.0000 -16.8730 -45.4111 0.1763
-2.9011 14.3413 -18.2052 -537.8380 -496.0120 -169.6680 0.0000 0.0000 0.0000 -6.4266 12.7318 -48.5127 22.3206 19.8704 96.7990 0.4859 -8.5156 -12.9180 2.0940 -9.0593 -25.9809 0.0000 0.0000 0.0000 -7.0245 18.0677 -69.3356 -21.1569 -19.9679 93.3842 0.1532 9.4699 -3.4344 -1.3165 7.2674 -20.5099 -4.6147 -3.8380 16.5989 1.9565 -5.8012 5.5554 5.7198 -2.9815 -2.6549 -8.2107 -10.9872 -5.5978 18.1851 -14.3974 -4.3119 6.1388 -7.1587 1.6555 -0.0000 0.0000 0.0000 -100.5770 -73.2662 126.5524 69.0265 -58.2708 -41.9419 -0.0000 -0.0000 18.0406 53.0541 -44.0132 -42.7341 -7.1250 0.0000 -0.0000 6.5695 -27.8408 -8.9149 -0.0000 0.0000 0.0000 70.2874 -1.1228 29.7281 -118.9671 56.5789 -84.7981 0.0000 0.0000 1.7667 -45.2574 -11.6080 11.4768 7.1250 -0.0000 -0.0000 -17.0678 -45.5283 0.2293
-2.8969 14.4148 -18.1857 -538.1000 -495.8270 -169.3460 0.0000 0.0000 0.0000 -7.1495 13.8948 -44.3729 21.1264 19.9696 93.2949 0.5595 -8.0447 -13.6337 2.1385 -9.1489 -26.2621 0.0000 0.0000 0.0000 -8.2328 21.3694 -70.0662 -20.1267 -19.9996 90.3706 -0.0642 6.2881 -5.9391 -1.2791 7.1674 -20.2122 -5.2660 -4.1338 16.0037 2.0773 -6.2584 5.1777 6.2485 -3.2038 -2.5937 -8.5074 -10.5642 -5.8675 17.7082 -13.8839 -3.3901 6.0470 -6.8448 1.8810 -0.0000 0.0000 0.0000 -105.1987 -71.7313 133.4081 64.4740 -57.3888 -38.0876 -0.0000 -0.0000 20.5864 53.9267 -46.3853 -44.8224 -7.1250 0.0000 -0.0000 5.7969 -30.4976 -7.9611 -0.0000 0.0000 0.0000 72.4783 -4.2231 30.6395 -114.5062 57.6045 -81.0523 0.0000 0.0000 1.1149 -45.8277 -10.8492 10.9648 7.1250 -0.0000 -0.0000 -17.4566 -44.6222 -0.1681
-2.8918 14.4812 -18.1544 -538.6370 -495.6150 -168.7160 0.0000 0.0000 0.0000 -7.8297 15.1338 -40.5212 19.7220 19.9981 89.1871 0.6722 -7.1038 -14.7011 2.0177 -8.9029 -25.4920 0.0000 0.0000 0.0000 -9.3630 24.5241 -70.6500 -18.7534 -19.9627 86.3531 -0.2158 3.6841 -8.2766 -1.0588 6.5424 -18.3667 -5.7863 -4.5620 15.3667 2.2998 -6.8602 4.7377 6.8232 -3.4950 -2.5426 -8.6686 -10.0248 -6.0630 17.0235 -13.1948 -2.5803 5.8968 -6.4595 2.0142 0.0000 -0.0000 0.0000 -107.4641 -70.0343 137.6524 60.8589 -56.5345 -35.0567 -0.0000 -0.0000 22.4339 55.1735 -48.3088 -47.0264 -7.1250 0.0000 -0.0000 5.3031 -32.8674 -7.3496 0.0000 -0.0000 0.0000 74.0414 -6.7781 31.6513 -108.8300 58.6169 -76.2315 0.0000 -0.0000 -1.3635 -48.5596 -7.4806 8.3885 7.1250 -0.0000 -0.0000 -19.1491 -40.4300 -2.2524
